<svg t="1767173380341" class="icon" viewBox="0 0 1024 1024" version="1.1" xmlns="http://www.w3.org/2000/svg" p-id="3611" width="200" height="200">
    <path d="M511.51670572 617.18978052c-157.66440517 0-285.91690082-128.26630405-285.91690082-285.9307092 0-157.65059677 128.25249565-285.91690082 285.91690082-285.91690085s285.94451763 128.26630405 285.94451763 285.91690084c0 157.66440517-128.28011246 285.93070923-285.94451763 285.93070921z m0-488.47244114c-111.69621419 0-202.55554033 90.87313456-202.55554035 202.55554033 0 111.69621419 90.85932615 202.56934875 202.55554035 202.56934874s202.58315715-90.87313456 202.58315714-202.56934874c-0.01380842-111.69621419-90.88694297-202.55554033-202.58315714-202.55554033z" fill="currentColor" p-id="3612"></path>
    <path d="M990.12994338 976.98166538c-21.33399072 0-39.50585595-16.29392172-41.46664991-37.94550582-12.48280103-138.88496998-131.59413043-247.69522685-271.15571241-247.69522683H345.53963878c-72.53556844 0-140.81814714 28.45912937-192.2682762 80.10257614-45.40204626 45.19492014-73.37788133 104.64011757-78.91505304 167.50980024-2.0022192 22.93576607-22.41104656 40.04438386-45.15349491 37.87646378-22.93576607-2.0022192-39.89249138-22.24534565-37.8902722-45.16730332 7.24941431-82.40858032 43.82788773-160.26038593 103.03834223-219.15324702 67.05363037-67.35741535 156.31118117-104.5158419 251.17494571-104.51584191h331.96794227c182.28479706 0 337.877941 142.14375434 354.19947952 323.60004688 2.05745283 22.93576607-14.87165566 43.19270095-37.77980491 45.25015378-1.25656515 0.08285045-2.54074711 0.13808409-3.78350387 0.13808408z" fill="currentColor" p-id="3613"></path>
    <path d="M990.18517703 976.98166538H32.8482344c-23.01861651 0-41.68758445-18.65515952-41.68758445-41.68758445s18.66896793-41.68758445 41.68758445-41.68758444h957.33694263c23.01861651 0 41.68758445 18.65515952 41.68758443 41.68758444s-18.66896793 41.68758445-41.68758443 41.68758445z" fill="currentColor" p-id="3614"></path>
</svg>